<svg xmlns="http://www.w3.org/2000/svg" version="1.1" xmlns:xlink="http://www.w3.org/1999/xlink" xmlns:svgjs="http://svgjs.com/svgjs" width="1440" height="560" preserveAspectRatio="none" viewBox="0 0 1440 560"><g mask="url(&quot;#SvgjsMask1058&quot;)" fill="none"><path d="M -192.48676942597683,219 C -48.49,234.2 239.51,313.6 527.5132305740232,295 C 815.51,276.4 959.51,113.6 1247.513230574023,126 C 1535.51,138.4 1929.02,333.6 1967.513230574023,357 C 2006.01,380.4 1545.5,265.8 1440,243" stroke="rgba(78, 105, 239, 1)" stroke-width="2"></path><path d="M -79.34572101040669,246 C 64.65,276.6 352.65,419.6 640.6542789895933,399 C 928.65,378.4 1072.65,144.4 1360.6542789895934,143 C 1648.65,141.6 2064.79,375.4 2080.6542789895934,392 C 2096.52,408.6 1568.13,259.2 1440,226" stroke="rgba(78, 105, 239, 1)" stroke-width="2"></path><path d="M -1410.5109199594324,341 C -1266.51,302 -978.51,147.4 -690.5109199594324,146 C -402.51,144.6 -258.51,338.4 29.489080040567615,334 C 317.49,329.6 467.39,134.2 749.4890800405676,124 C 1031.59,113.8 1301.9,251.2 1440,283" stroke="rgba(78, 105, 239, 1)" stroke-width="2"></path></g><defs><mask id="SvgjsMask1058"><rect width="1440" height="560" fill="#ffffff"></rect></mask></defs></svg>